<?xml version="1.0" standalone="no"?>
<!DOCTYPE svg PUBLIC "-//W3C//DTD SVG 20010904//EN"
 "http://www.w3.org/TR/2001/REC-SVG-20010904/DTD/svg10.dtd">
<svg version="1.0" xmlns="http://www.w3.org/2000/svg"
 viewBox="0 0 1280.000000 954.000000"
 preserveAspectRatio="xMidYMid meet">
<g transform="translate(0.000000,954.000000) scale(0.100000,-0.100000)">
<path style="fill:#edeac2;stroke-opacity:1;stroke:#636363;stroke-width:30;" d="M1300 9501 c0 -15 -86 -61 -114 -61 -21 0 -25 -5 -28 -37 -3 -32 -7
-39 -34 -46 -16 -5 -59 -33 -94 -63 -35 -30 -72 -54 -81 -54 -12 0 -19 -12
-24 -41 -4 -22 -4 -43 -1 -46 3 -4 31 -2 61 4 31 5 58 6 61 2 7 -12 -26 -39
-49 -39 -12 0 -29 -5 -37 -10 -12 -8 -9 -10 12 -10 15 0 39 -5 54 -10 25 -10
26 -12 10 -29 -10 -11 -16 -35 -16 -64 0 -58 -21 -63 -51 -12 -12 19 -25 35
-29 35 -5 0 -15 3 -24 6 -12 5 -16 0 -16 -20 0 -15 -8 -30 -21 -37 -17 -9 -25
-7 -43 10 -30 28 -37 27 -86 -14 -33 -27 -51 -35 -83 -35 -23 -1 -60 -7 -82
-15 -57 -21 -87 -18 -130 11 -27 18 -41 22 -48 15 -6 -6 -19 -11 -29 -11 -10
0 -18 -7 -18 -15 0 -8 -11 -17 -25 -21 -21 -5 -24 -11 -19 -28 3 -11 6 -23 6
-26 0 -24 -6 -30 -29 -30 -15 0 -37 -10 -50 -22 -15 -14 -37 -22 -68 -23 -32
-1 -52 -8 -68 -23 l-21 -22 22 0 c15 0 22 -6 22 -18 0 -23 -30 -52 -53 -52 -9
0 -26 -18 -38 -41 -18 -36 -19 -45 -8 -65 13 -24 8 -43 -23 -86 -17 -24 -2
-35 20 -15 22 20 76 15 104 -10 14 -13 18 -25 14 -46 -4 -20 1 -37 16 -57 20
-28 20 -31 5 -48 -15 -16 -15 -20 -2 -38 15 -19 15 -19 35 4 17 20 31 24 95
28 61 3 75 1 75 -11 0 -8 -4 -15 -10 -15 -5 0 -30 -19 -54 -43 -37 -35 -48
-53 -57 -97 -6 -30 -18 -67 -26 -83 -12 -24 -12 -28 2 -33 8 -3 15 -17 15 -30
0 -30 16 -31 31 -1 7 12 20 28 31 35 10 7 18 19 18 27 0 17 49 57 62 49 5 -3
12 3 15 14 7 28 35 37 50 16 8 -11 20 -14 37 -10 14 3 27 2 30 -3 6 -9 -43
-89 -67 -109 -13 -11 -14 -19 -6 -40 14 -37 2 -94 -24 -114 -18 -14 -19 -20
-10 -40 9 -21 17 -24 45 -20 18 2 48 16 67 30 32 24 35 24 47 8 13 -18 9 -46
-7 -46 -5 0 -20 -19 -35 -41 -14 -23 -34 -44 -45 -46 -10 -3 -19 -9 -19 -14 0
-5 -9 -18 -21 -30 -11 -11 -19 -22 -17 -24 20 -19 158 21 158 46 0 21 26 43
40 34 17 -11 12 -65 -7 -72 -10 -3 -35 -21 -56 -40 -20 -18 -41 -33 -47 -33
-13 0 -72 -88 -66 -99 11 -17 -5 -40 -35 -50 -29 -10 -29 -11 -29 -84 0 -96
11 -197 21 -197 4 0 57 50 117 110 97 98 113 110 144 110 23 0 42 7 54 21 15
17 27 20 57 16 47 -6 118 12 183 48 62 35 87 30 82 -17 -3 -32 -2 -33 35 -33
73 0 92 -68 31 -109 -37 -25 -84 -95 -84 -125 0 -9 9 -22 20 -29 11 -7 20 -23
20 -36 0 -13 7 -29 15 -36 21 -18 89 5 127 42 16 16 37 28 48 28 13 0 25 12
35 36 16 40 35 37 35 -5 0 -34 7 -42 29 -31 9 5 44 16 79 24 55 13 67 13 97 0
19 -8 44 -14 55 -14 19 0 21 -4 15 -31 -7 -31 -7 -31 26 -24 32 7 44 16 52 39
6 18 58 -5 67 -29 11 -29 22 -31 40 -10 7 8 27 15 44 15 17 0 56 13 86 28 l55
27 3 52 c3 47 5 52 34 62 42 15 42 15 77 -15 30 -25 31 -25 66 -8 32 15 37 15
53 1 20 -18 82 -31 98 -20 6 5 16 18 23 31 16 30 33 28 64 -8 23 -25 35 -30
72 -30 25 0 56 7 69 15 21 14 24 13 41 -5 13 -14 16 -28 11 -53 -5 -29 -3 -35
14 -40 25 -6 25 -15 2 -98 -23 -83 -18 -134 15 -156 22 -15 27 -15 51 -1 23
13 37 13 90 3 57 -11 69 -17 120 -68 l56 -56 -24 -43 c-13 -24 -36 -62 -52
-85 -15 -23 -28 -51 -28 -61 0 -11 -6 -22 -12 -24 -7 -3 -13 -13 -13 -24 0
-13 -8 -20 -27 -22 -16 -2 -28 -9 -28 -17 0 -8 -8 -19 -18 -24 -10 -5 -24 -21
-32 -35 -7 -14 -18 -26 -24 -26 -6 0 -16 -10 -21 -22 -6 -14 -17 -22 -29 -20
-10 2 -25 -3 -34 -12 -10 -8 -37 -16 -62 -18 -43 -3 -46 -5 -73 -55 -16 -29
-37 -58 -48 -63 -12 -7 -19 -21 -19 -41 0 -29 -30 -84 -55 -101 -5 -4 -29 -8
-52 -8 -24 0 -43 -3 -43 -7 0 -5 16 -28 35 -52 19 -24 35 -52 35 -62 0 -9 12
-32 26 -49 22 -26 25 -35 16 -53 -22 -45 -24 -116 -5 -169 17 -48 17 -51 -3
-107 -21 -56 -21 -58 -3 -80 25 -31 24 -44 -7 -97 -29 -49 -27 -61 17 -116 26
-32 20 -69 -13 -87 -13 -6 -30 -25 -39 -40 -11 -19 -29 -32 -50 -36 -35 -8
-78 -32 -91 -50 -12 -17 -9 -92 5 -102 6 -6 25 -13 40 -17 15 -4 31 -14 34
-24 4 -9 17 -30 30 -46 21 -25 23 -35 17 -90 -3 -33 -10 -65 -15 -71 -5 -5 -9
-24 -9 -41 0 -24 -10 -43 -36 -71 -28 -29 -37 -48 -40 -82 -4 -50 -22 -110
-40 -129 -18 -21 -352 -32 -418 -14 -48 14 -62 2 -43 -34 18 -33 152 -174 166
-174 5 0 17 -7 26 -16 13 -13 15 -29 9 -84 -6 -65 -5 -68 25 -102 24 -28 31
-45 31 -77 0 -45 26 -81 58 -81 27 0 42 -20 42 -57 l0 -34 48 7 c42 5 52 3 79
-20 22 -18 33 -39 38 -67 6 -36 3 -46 -34 -101 -23 -35 -41 -73 -41 -89 0 -29
-41 -86 -71 -97 -9 -4 -43 -32 -75 -62 l-59 -55 -1 -70 c-1 -53 -6 -79 -23
-106 -16 -27 -21 -50 -20 -90 2 -57 10 -72 97 -191 30 -40 63 -94 74 -120 18
-43 24 -48 52 -48 18 0 37 5 42 10 16 16 73 30 79 19 4 -5 1 -26 -6 -47 -6
-20 -17 -55 -24 -77 -7 -22 -16 -52 -19 -67 -4 -15 -17 -35 -30 -43 -21 -14
-26 -14 -52 0 -28 14 -30 14 -47 -10 -14 -18 -28 -25 -52 -25 -48 0 -65 -9
-65 -36 0 -13 -6 -38 -14 -56 -8 -18 -18 -46 -21 -63 -4 -18 -28 -50 -60 -80
-53 -51 -85 -99 -85 -132 0 -10 -11 -36 -24 -59 -12 -22 -28 -55 -34 -74 -11
-30 -10 -37 13 -70 31 -44 46 -116 58 -265 4 -43 24 -135 30 -135 1 0 27 9 57
21 35 14 89 23 151 26 93 6 98 5 175 -30 43 -19 90 -38 104 -42 73 -22 283
-149 354 -214 15 -14 46 -62 68 -106 21 -44 43 -84 48 -89 18 -18 11 -44 -16
-65 -27 -21 -27 -22 -11 -59 8 -20 17 -44 20 -52 2 -8 25 -21 51 -28 25 -6 46
-16 46 -22 0 -5 13 -16 30 -25 38 -20 40 -56 5 -83 l-25 -20 41 -79 c23 -43
50 -94 60 -113 10 -19 26 -40 37 -47 11 -7 32 -35 47 -62 31 -57 61 -72 123
-64 44 6 56 -2 114 -79 19 -26 41 -39 85 -53 32 -10 77 -31 101 -47 43 -28 44
-28 70 -10 15 11 41 24 57 29 28 9 30 13 33 68 4 75 15 89 62 81 36 -6 37 -5
50 34 7 23 28 62 45 89 18 27 35 60 39 74 12 50 53 84 134 112 42 16 103 39
134 53 58 25 84 26 186 6 20 -4 44 -1 66 10 19 9 38 16 43 16 4 0 16 14 25 30
9 16 32 37 51 46 22 10 55 45 88 91 30 40 63 76 74 79 11 2 49 1 85 -5 74 -10
169 1 206 25 21 14 28 15 68 1 40 -14 51 -14 106 0 57 15 65 15 96 -1 39 -18
84 -20 133 -6 36 10 112 -8 158 -38 27 -17 75 -4 120 31 26 21 38 22 225 23
l197 1 27 -28 c20 -21 33 -27 51 -23 15 4 30 0 42 -10 38 -34 150 11 167 68
20 65 126 120 162 84 9 -9 20 -8 50 1 56 19 101 -3 144 -68 20 -31 40 -51 52
-51 23 0 106 66 106 84 0 7 9 21 21 32 12 10 28 35 36 54 8 19 33 49 56 65 36
26 43 37 48 75 3 25 12 59 21 76 9 16 26 65 36 108 23 89 50 132 142 226 49
50 79 72 120 87 43 16 59 28 71 53 20 41 124 120 158 120 13 0 38 5 55 11 26
9 39 7 76 -10 l45 -20 13 24 c11 22 19 25 65 23 29 -1 64 -7 78 -14 27 -13 43
-10 188 39 39 14 41 29 7 38 -37 10 -96 59 -102 84 -4 17 5 37 32 74 21 28 42
51 46 51 4 0 8 12 8 28 0 35 39 116 79 166 28 36 31 45 31 113 0 118 18 146
100 155 24 3 25 5 22 70 -4 64 -2 69 26 98 17 16 39 30 50 30 13 0 22 9 26 26
14 53 57 94 144 136 47 22 106 43 131 47 41 6 46 9 52 39 9 46 44 79 89 87 21
4 48 17 61 31 12 13 29 24 36 24 8 0 30 16 49 36 36 35 36 36 15 50 -11 8 -21
26 -21 38 0 19 -10 28 -48 44 -27 12 -69 26 -93 31 -53 12 -105 66 -179 185
-65 104 -87 169 -70 202 12 21 8 35 -39 135 -29 61 -53 121 -52 132 5 128 10
156 40 222 18 39 40 77 51 85 10 8 28 43 40 78 25 76 51 119 119 197 29 32 54
70 58 84 3 14 11 33 18 41 7 8 18 32 25 53 9 28 21 43 46 54 25 13 38 28 50
62 9 25 21 58 26 73 7 18 22 31 45 39 19 6 37 18 40 28 4 9 29 45 58 81 29 36
65 92 81 125 41 81 154 272 170 286 7 5 43 15 80 20 68 10 162 52 172 77 6 17
-43 59 -80 67 -31 7 -78 41 -78 56 0 6 25 33 55 60 30 28 74 79 99 114 44 61
145 147 196 167 14 5 43 7 64 5 30 -4 46 0 70 17 36 27 108 56 137 56 11 0 52
13 90 30 39 16 109 37 156 46 48 9 139 33 202 54 64 21 139 42 166 46 97 13
121 29 164 108 48 86 99 138 166 167 28 12 72 37 98 57 27 19 103 59 170 88
67 29 139 67 159 84 21 17 57 37 80 46 24 8 54 25 68 38 14 13 40 31 57 40 18
9 40 30 48 46 8 16 28 36 43 44 40 21 78 66 91 108 10 30 9 42 -4 67 -10 20
-13 43 -9 68 5 35 2 42 -40 85 -40 41 -46 52 -46 90 0 24 6 54 13 68 11 21 19
25 53 22 62 -4 84 5 100 43 8 19 14 38 14 43 0 13 -47 32 -79 32 -36 0 -47 14
-55 65 -3 22 -5 41 -6 42 0 1 -16 2 -35 1 -23 -1 -43 6 -58 19 -24 22 -112 39
-122 23 -3 -6 -21 -10 -39 -10 -22 0 -40 -8 -56 -25 -18 -19 -32 -24 -62 -23
-47 2 -80 -25 -76 -61 3 -25 1 -26 -54 -26 -31 0 -60 -3 -64 -7 -18 -18 -66
-7 -101 25 -21 17 -64 45 -96 60 -51 26 -61 27 -93 17 -19 -7 -44 -10 -56 -7
-14 4 -31 -5 -59 -34 -37 -38 -51 -44 -94 -39 -29 3 -46 20 -67 68 -15 32 -24
42 -43 42 -13 0 -36 11 -52 24 -36 30 -118 42 -153 21 -66 -38 -164 -69 -194
-61 -12 3 -29 19 -40 36 -16 29 -17 33 -2 49 20 22 20 37 1 45 -12 4 -15 18
-14 54 3 51 -26 125 -59 155 -19 17 -135 26 -164 13 -13 -6 -24 2 -45 33 -32
46 -62 59 -151 65 -42 4 -71 12 -88 25 -14 11 -39 23 -57 26 -18 4 -47 14 -64
22 -40 19 -60 12 -74 -24 -10 -27 -8 -102 5 -133 8 -21 -7 -41 -30 -40 -10 0
-67 0 -125 0 -83 0 -109 3 -119 15 -19 22 -39 18 -50 -10 -12 -32 -45 -33 -65
-2 -25 38 -58 49 -113 36 -26 -6 -54 -15 -63 -19 -9 -5 -37 -11 -62 -15 -59
-9 -98 13 -138 78 -20 33 -35 47 -51 47 -13 0 -43 14 -67 30 -24 17 -47 30
-51 30 -3 0 -21 -11 -40 -25 -36 -27 -87 -33 -121 -15 -16 9 -24 6 -44 -17
l-24 -28 -28 34 c-15 18 -40 48 -56 66 -15 18 -38 36 -52 39 -16 4 -27 15 -31
34 -13 62 -23 75 -52 66 -15 -4 -45 -7 -67 -7 -22 1 -54 2 -70 2 -17 0 -46 12
-65 26 -19 14 -41 25 -51 25 -9 0 -22 7 -30 16 -7 9 -21 13 -32 10 -12 -3 -33
5 -52 20 -17 13 -45 24 -61 24 -39 0 -53 11 -63 46 -9 30 -14 25 -25 -29 -9
-40 -32 -44 -85 -16 -55 29 -62 52 -27 88 26 27 68 144 60 166 -4 10 -118 55
-139 55 -3 0 -10 -11 -15 -25 -5 -14 -16 -25 -25 -25 -19 0 -55 36 -55 55 0
11 -11 15 -42 15 -37 0 -47 5 -70 34 -16 19 -28 40 -28 46 0 24 -31 20 -69
-10 -61 -49 -224 -87 -361 -85 l-105 3 -105 61 c-58 33 -110 61 -116 61 -7 0
-25 7 -40 15 -16 8 -41 15 -55 15 -15 0 -38 9 -53 21 -23 18 -31 19 -58 10
-17 -6 -51 -11 -75 -11 -61 0 -123 -49 -123 -97 0 -18 -2 -33 -5 -33 -3 0 -24
9 -46 21 -23 11 -43 18 -46 15 -8 -7 -74 21 -98 43 -25 22 -90 41 -143 41 -41
0 -72 19 -72 46 0 7 -11 16 -24 20 -14 3 -32 14 -42 25 -9 10 -27 19 -39 19
-45 0 -115 -33 -160 -76 -26 -24 -49 -44 -51 -44 -2 0 -11 11 -20 25 -13 20
-14 28 -4 40 7 9 11 18 8 21 -8 8 -99 -17 -138 -38 -19 -10 -45 -18 -57 -18
-12 0 -59 -14 -105 -31 -46 -17 -103 -31 -128 -31 -281 -2 -358 6 -524 56 -48
14 -109 26 -135 26 -26 0 -74 7 -106 16 -33 9 -78 18 -100 19 -48 2 -81 18
-95 45 -8 15 -21 20 -50 20 -21 0 -42 -4 -45 -10 -11 -17 -23 -11 -27 12 -3
22 -6 23 -133 23 -128 0 -131 0 -171 30 -23 17 -51 45 -63 63 -23 35 -42 40
-61 17 -7 -8 -18 -15 -26 -15 -7 0 -15 -8 -19 -18 -6 -22 -45 -42 -83 -42 -15
-1 -38 -7 -50 -14 -25 -13 -116 -5 -151 14 -11 5 -36 2 -71 -10 -50 -17 -78
-18 -310 -13 -286 7 -282 7 -402 -3 -48 -3 -112 -3 -143 1 -54 6 -57 8 -121
85 -44 53 -79 84 -104 94 -21 8 -41 20 -45 26 -11 17 -61 11 -80 -10 -24 -27
-30 -26 -55 15 -18 29 -25 33 -40 25 -26 -14 -28 -13 -32 11 -3 18 -9 16 -68
-25 -85 -60 -100 -60 -100 -1 0 25 -4 45 -10 45 -5 0 -10 -4 -10 -9z"/>
<path style="fill:#edeac2;stroke-opacity:1;stroke:#636363;stroke-width:30;" d="M10600 7850 c0 -5 5 -10 11 -10 5 0 7 5 4 10 -3 6 -8 10 -11 10 -2 0
-4 -4 -4 -10z"/>
<path style="fill:#edeac2;stroke-opacity:1;stroke:#636363;stroke-width:30;" d="M9330 5470 c0 -5 6 -10 14 -10 8 0 18 5 21 10 3 6 -3 10 -14 10 -12
0 -21 -4 -21 -10z"/>
<path style="fill:#edeac2;stroke-opacity:1;stroke:#636363;stroke-width:30;" d="M12576 4841 c-4 -7 -43 -11 -96 -11 -49 0 -100 -4 -115 -10 -31 -12
-43 -39 -24 -51 8 -5 14 -25 14 -51 l0 -43 83 4 83 3 77 -50 c191 -125 235
-112 176 51 -22 64 -30 74 -64 90 -22 10 -42 27 -45 38 -4 13 -15 19 -34 19
-15 0 -32 5 -38 11 -8 8 -13 8 -17 0z"/>
<path style="fill:#edeac2;stroke-opacity:1;stroke:#636363;stroke-width:30;" d="M11714 4695 c-10 -8 -14 -14 -9 -15 15 0 40 18 34 24 -3 3 -14 -1
-25 -9z"/>
<path style="fill:#edeac2;stroke-opacity:1;stroke:#636363;stroke-width:30;" d="M11570 4654 c-14 -7 -33 -14 -42 -14 -16 0 -108 -38 -148 -61 -8 -5
-31 -18 -52 -29 -20 -11 -62 -49 -93 -84 -32 -36 -70 -69 -84 -74 -15 -5 -56
-31 -91 -58 -36 -27 -76 -57 -90 -66 l-25 -17 33 -31 c18 -17 43 -30 57 -30
16 0 28 -7 31 -17 18 -57 47 -68 62 -25 10 28 87 92 112 92 6 0 28 -12 51 -27
36 -24 40 -30 39 -67 -2 -62 10 -108 34 -135 19 -21 27 -23 93 -19 59 4 75 2
88 -12 8 -9 15 -21 15 -26 0 -6 16 -25 35 -44 l35 -34 27 25 c16 14 54 44 85
67 47 34 59 50 68 85 18 68 62 147 98 174 19 15 32 34 32 47 0 13 11 33 24 45
30 28 44 95 25 117 -7 9 -30 24 -52 36 l-39 20 -32 -31 c-49 -47 -88 -43 -143
15 -47 51 -53 70 -24 79 25 8 44 31 37 44 -5 7 -15 7 -33 0 -20 -7 -30 -6 -41
5 -13 13 -13 18 2 40 l16 26 -42 -1 c-24 -1 -54 -7 -68 -15z"/>
<path style="fill:#edeac2;stroke-opacity:1;stroke:#636363;stroke-width:30;" d="M10115 3644 c-22 -9 -55 -20 -72 -26 -46 -16 -68 -44 -68 -86 0 -33
-3 -37 -30 -42 -24 -4 -30 -11 -36 -40 -9 -40 -4 -52 19 -49 31 4 94 -13 99
-27 3 -8 12 -14 20 -14 9 0 13 6 9 15 -10 26 4 43 59 74 29 17 56 40 60 52 4
11 20 33 36 48 25 22 28 31 23 63 -9 50 -45 60 -119 32z"/>
<path style="fill:#edeac2;stroke-opacity:1;stroke:#636363;stroke-width:30;" d="M10060 3165 c0 -24 0 -24 30 -7 38 22 38 32 0 32 -25 0 -30 -4 -30
-25z"/>
<path style="fill:#edeac2;stroke-opacity:1;stroke:#636363;stroke-width:30;" d="M10195 3140 c-3 -5 -1 -10 4 -10 6 0 11 5 11 10 0 6 -2 10 -4 10 -3
0 -8 -4 -11 -10z"/>
</g>
</svg>
